<?xml version="1.0" encoding="utf-8"?>
<!-- Generator: Adobe Illustrator 19.1.0, SVG Export Plug-In . SVG Version: 6.00 Build 0)  -->
<svg version="1.1" id="Layer_1" xmlns="http://www.w3.org/2000/svg" xmlns:xlink="http://www.w3.org/1999/xlink" x="0px" y="0px"
	 viewBox="0 0 24 22.5" enable-background="new 0 0 24 22.5" xml:space="preserve">
<g>
	<path fill="#58BD7C" d="M14.1,0.6L13,2.1l3.6,3l1.1-1.4c0.6-0.7,0.4-1.7-0.2-2.3l0,0l-1.2-1C16,0.1,15.6,0,15.3,0l0,0
		C14.9,0,14.4,0.2,14.1,0.6 M3.2,0.2C2.3,1,4.4,4.2,7.5,9.1l0,0l-4.3,5.5v0l-1,1.3L3.5,17l1.1,0.9c0,0,0,0,0,0l0,0l1.2,1l0.9-1.2
		c0,0,0.1,0,0.1-0.1l0,0l3.4-4.4c2.4,3.3,4.7,5.1,6.4,3.6l0,0c1.7-1.5,0-4.6-3-8l0,0l2.1-2.7l-3.6-3l-1.7,2.2C7.1,2.4,4.8,0,3.6,0
		l0,0C3.5,0,3.3,0.1,3.2,0.2 M17.8,17.2c-3.4,2.7,1.2,6.1,3.7,5.2l0,0c1.7-0.6,3.2-3.6,2.1-2.9l0,0c-1.1,0.6-1.7,0.2-2.1-0.6l0,0
		c-0.3-0.6-1.2-2-2.5-2l0,0C18.6,16.9,18.2,17,17.8,17.2 M0,22.5l4.8-2.3l-3.6-3L0,22.5z"/>
</g>
</svg>
