<?xml version="1.0" encoding="utf-8"?>
<!-- Generator: Adobe Illustrator 19.1.0, SVG Export Plug-In . SVG Version: 6.00 Build 0)  -->
<svg version="1.1" id="Layer_1" xmlns="http://www.w3.org/2000/svg" xmlns:xlink="http://www.w3.org/1999/xlink" x="0px" y="0px"
	 viewBox="0 0 460 537.2" enable-background="new 0 0 460 537.2" xml:space="preserve">
<symbol  id="New_Symbol_1" viewBox="-150 -30 300 60">
	<g>
		<path fill="#39A7DE" d="M150-26c0-2.2-1.8-4-4-4h-292c-2.2,0-4,1.8-4,4v52c0,2.2,1.8,4,4,4h292c2.2,0,4-1.8,4-4V-26z"/>
	</g>
	<text transform="matrix(1 0 0 -1 -64.3364 -7.3979)" fill="#FFFFFF" font-family="'Roboto-Bold'" font-size="18px">POST PROJECT</text>
	<polygon display="none" fill="none" points="-150,30 150,30 150,-30 -150,-30 	"/>
</symbol>
<g>
	<g>
		<rect x="2" y="41" fill="#FFFFFF" width="456" height="494.2"/>
		<g>
			<path fill="#E5E5E1" d="M456,43v490.2H4V43H456 M460,39H0v498.2h460V39L460,39z"/>
		</g>
	</g>
	<path fill="#E5E5E1" d="M456,0H4C1.8,0,0,1.8,0,4v36h460V4C460,1.8,458.2,0,456,0z"/>
</g>
<g>
	<path fill="#EFEFEA" d="M368,514c0,2.2-1.8,4-4,4H96c-2.2,0-4-1.8-4-4V92c0-2.2,1.8-4,4-4h268c2.2,0,4,1.8,4,4V514z"/>
</g>
<g>
	<text transform="matrix(1 0 0 1 113.1674 73.5012)" fill="#44BA82" font-family="'BrandonText-Regular'" font-size="29.2254px">Start your project.</text>
</g>
<use xlink:href="#New_Symbol_1"  width="300" height="60" x="-150" y="-30" transform="matrix(0.8118 0 0 -0.8118 229.9128 478.3464)" overflow="visible"/>
<g>
	<path fill="#FFFFFF" d="M352,162c0,2.2-1.8,4-4,4H112c-2.2,0-4-1.8-4-4v-33c0-2.2,1.8-4,4-4h236c2.2,0,4,1.8,4,4V162z"/>
	<path fill="none" stroke="#CCCBC1" stroke-miterlimit="10" d="M351.5,161.5c0,2.2-1.8,4-4,4h-236c-2.2,0-4-1.8-4-4v-33
		c0-2.2,1.8-4,4-4h236c2.2,0,4,1.8,4,4V161.5z"/>
</g>
<g>
	<text transform="matrix(1 0 0 1 124.0634 150.3908)" fill="#CCCBC1" font-family="'Roboto-Regular'" font-size="14.6127px">Something Catchy</text>
</g>
<g>
	<text transform="matrix(1 0 0 1 124.0634 114.3283)" fill="#999992" font-family="'Roboto-Regular'" font-size="11.3654px">Project Name</text>
</g>
<g>
	<path fill="#FFFFFF" d="M352,239c0,2.2-1.8,4-4,4H112c-2.2,0-4-1.8-4-4v-33c0-2.2,1.8-4,4-4h236c2.2,0,4,1.8,4,4V239z"/>
	<path fill="none" stroke="#CCCBC1" stroke-miterlimit="10" d="M351.5,239.5c0,2.2-1.8,4-4,4h-236c-2.2,0-4-1.8-4-4v-33
		c0-2.2,1.8-4,4-4h236c2.2,0,4,1.8,4,4V239.5z"/>
</g>
<g>
	<text transform="matrix(1 0 0 1 124.0634 227.513)" fill="#CCCBC1" font-family="'Roboto-Regular'" font-size="14.6127px">#logo, #animation, #web</text>
</g>
<g>
	<text transform="matrix(1 0 0 1 124.0634 191.4514)" fill="#999992" font-family="'Roboto-Regular'" font-size="11.3654px">Category</text>
</g>
<g>
	<path fill="#FFFFFF" d="M352,356c0,2.2-1.8,4-4,4H112c-2.2,0-4-1.8-4-4v-73c0-2.2,1.8-4,4-4h236c2.2,0,4,1.8,4,4V356z"/>
	<path fill="none" stroke="#CCCBC1" stroke-miterlimit="10" d="M351.5,356.5c0,2.2-1.8,4-4,4h-236c-2.2,0-4-1.8-4-4v-73
		c0-2.2,1.8-4,4-4h236c2.2,0,4,1.8,4,4V356.5z"/>
</g>
<g>
	<rect x="124.1" y="292.1" fill="none" width="211.1" height="57.6"/>
	<text transform="matrix(1 0 0 1 124.0629 304.6349)"><tspan x="0" y="0" fill="#CCCBC1" font-family="'Roboto-Regular'" font-size="14.6127px">Tell people about what you’re </tspan><tspan x="0" y="17.5" fill="#CCCBC1" font-family="'Roboto-Regular'" font-size="14.6127px">creating and the project scope.</tspan></text>
</g>
<g>
	<text transform="matrix(1 0 0 1 124.0634 268.5734)" fill="#999992" font-family="'Roboto-Regular'" font-size="11.3654px">Description</text>
</g>
<g>
	<path fill="#EFEFEA" d="M352,434c0,2.2-1.8,4-4,4H112c-2.2,0-4-1.8-4-4v-33c0-2.2,1.8-4,4-4h236c2.2,0,4,1.8,4,4V434z"/>
	<path fill="none" stroke="#44BA82" stroke-miterlimit="10" d="M351.5,433.5c0,2.2-1.8,4-4,4h-236c-2.2,0-4-1.8-4-4v-33
		c0-2.2,1.8-4,4-4h236c2.2,0,4,1.8,4,4V433.5z"/>
</g>
<g>
	<text transform="matrix(1 0 0 1 124.0634 422.3488)" fill="#595955" font-family="'Roboto-Regular'" font-size="14.6127px">$1,000</text>
</g>
<g>
	<text transform="matrix(1 0 0 1 124.0634 386.2873)" fill="#999992" font-family="'Roboto-Regular'" font-size="11.3654px">Price</text>
</g>
<path fill="#36A7DE" d="M324.6,417.2c0,3.6,2.9,6.5,6.5,6.5l0,0c3.6,0,6.5-2.9,6.5-6.5l0,0c0-3.6-2.9-6.5-6.5-6.5l0,0
	C327.5,410.7,324.6,413.6,324.6,417.2 M330.3,413.1c0-0.4,0.4-0.8,0.8-0.8l0,0c0.4,0,0.8,0.4,0.8,0.8l0,0c0,0.4-0.4,0.8-0.8,0.8l0,0
	C330.6,413.9,330.3,413.5,330.3,413.1 M328.7,414.7h3.2v4.9h1.6v1.6h-4.8v-1.6h1.6v-4h-1.6V414.7z"/>
</svg>
