<?xml version="1.0" encoding="utf-8"?>
<!-- Generator: Adobe Illustrator 19.1.0, SVG Export Plug-In . SVG Version: 6.00 Build 0)  -->
<svg version="1.0" id="Layer_1" xmlns="http://www.w3.org/2000/svg" xmlns:xlink="http://www.w3.org/1999/xlink" x="0px" y="0px"
	 viewBox="0 0 460 760" enable-background="new 0 0 460 760" xml:space="preserve">
<g>
	<g>
		<g>
			<rect x="2" y="42" fill="#FFFFFF" width="456" height="286"/>
			<g>
				<path fill="#E5E5E1" d="M456,44v282H4V44H456 M460,40H0v290h460V40L460,40z"/>
			</g>
		</g>
		<path fill="#E5E5E1" d="M456,0H4C1.8,0,0,1.8,0,4v36h460V4C460,1.8,458.2,0,456,0z"/>
	</g>
	<g>
		<g>
			<rect x="2" y="472" fill="#FFFFFF" width="456" height="286"/>
			<g>
				<path fill="#E5E5E1" d="M456,474v282H4V474H456 M460,470H0v290h460V470L460,470z"/>
			</g>
		</g>
		<path fill="#E5E5E1" d="M456,430H4c-2.2,0-4,1.8-4,4v36h460v-36C460,431.8,458.2,430,456,430z"/>
	</g>
	<g>
		<g>
			
				<line fill="none" stroke="#E5E5E1" stroke-width="4" stroke-linecap="round" stroke-linejoin="round" x1="230" y1="350" x2="230" y2="405.7"/>
			<g>
				<polygon fill="#E5E5E1" points="213.6,392.4 216.6,389.7 230,404.1 243.4,389.7 246.4,392.4 230,410 				"/>
			</g>
		</g>
	</g>
</g>
<line fill="none" stroke="#46BA82" stroke-width="2" stroke-miterlimit="10" x1="45.9" y1="86" x2="77.9" y2="86"/>
<g>
	<rect x="45.7" y="138.8" fill="none" width="367.7" height="63"/>
	<text transform="matrix(1 0 0 1 45.7117 144.0101)"><tspan x="0" y="0" fill="#737C80" font-family="'HelveticaNeue'" font-size="7.3539px">Skateboard Brooklyn raw denim VHS next level deep v. Fingerstache quinoa fashion axe lo-fi, tofu Schlitz kitsch </tspan><tspan x="0" y="12.6" fill="#737C80" font-family="'HelveticaNeue'" font-size="7.3539px">jean shorts asymmetrical wolf retro McSweeney&apos;s salvia Vice organic. Hoodie Tonx brunch, vinyl quinoa ethical </tspan><tspan x="0" y="25.2" fill="#737C80" font-family="'HelveticaNeue'" font-size="7.3539px">butcher ugh kitsch McSweeney&apos;s Godard fap. Gastropub try-hard pork belly artisan, vegan vinyl whatever </tspan><tspan x="0" y="37.8" fill="#737C80" font-family="'HelveticaNeue'" font-size="7.3539px">letterpress leggings stumptown lomo fingerstache. VHS typewriter Pinterest keytar polaroid.</tspan></text>
</g>
<g>
	<text transform="matrix(1 0 0 1 45.7117 117.9588)" fill="#737C80" font-family="'BrandonText-Medium'" font-size="12.6067px">Description</text>
</g>
<g>
	<text transform="matrix(1 0 0 1 45.7117 233.5203)" fill="#737C80" font-family="'BrandonText-Medium'" font-size="12.6067px">Timeline</text>
</g>
<line fill="none" stroke="#EEF1F2" stroke-width="5" stroke-linecap="round" stroke-miterlimit="10" x1="45.7" y1="264.8" x2="413.4" y2="264.8"/>
<line fill="none" stroke="#36A7DE" stroke-width="5" stroke-linecap="round" stroke-miterlimit="10" x1="56.2" y1="264.8" x2="142.9" y2="264.8"/>
<line fill="none" stroke="#36A7DE" stroke-width="5" stroke-linecap="round" stroke-miterlimit="10" x1="56.2" y1="255.6" x2="56.2" y2="274"/>
<line fill="none" stroke="#ACB9BF" stroke-width="5" stroke-linecap="round" stroke-miterlimit="10" x1="402.9" y1="255.6" x2="402.9" y2="274"/>
<g>
	<path fill="#737C80" d="M192.8,270.3c0,2.8-2.2,5-5,5h-11c-2.8,0-5-2.2-5-5v-11c0-2.8,2.2-5,5-5h11c2.8,0,5,2.2,5,5V270.3z"/>
</g>
<circle fill="#36A7DE" cx="77.2" cy="264.8" r="2.6"/>
<circle fill="#36A7DE" cx="124.5" cy="264.8" r="2.6"/>
<path fill="#EEF1F2" d="M179.2,260.6c-0.3,0-0.6,0.3-0.6,0.6l0,0v7.3c0,0.3,0.3,0.6,0.6,0.6l0,0h6.2c0.3,0,0.6-0.3,0.6-0.6l0,0v-4.7
	h-2.6v-0.1v-0.4v-2.6H179.2z M183.9,263.3h2.1v0l-2.1-2.1V263.3z"/>
<g>
	<path fill="#737C80" d="M360.9,270.3c0,2.8-2.2,5-5,5h-11c-2.8,0-5-2.2-5-5v-11c0-2.8,2.2-5,5-5h11c2.8,0,5,2.2,5,5V270.3z"/>
</g>
<path fill="#EEF1F2" d="M347.3,260.6c-0.3,0-0.6,0.3-0.6,0.6l0,0v7.3c0,0.3,0.3,0.6,0.6,0.6l0,0h6.2c0.3,0,0.6-0.3,0.6-0.6l0,0v-4.7
	h-2.6v-0.1v-0.4v-2.6H347.3z M352,263.3h2.1v0l-2.1-2.1V263.3z"/>
<g>
	<text transform="matrix(1 0 0 1 49.7927 286.8254)" fill="#ACB9BF" font-family="'HelveticaNeue'" font-size="5.2528px">Oct 6</text>
</g>
<g>
	<text transform="matrix(1 0 0 1 395.0164 286.8264)"><tspan x="0" y="0" fill="#ACB9BF" font-family="'HelveticaNeue'" font-size="5.2528px">Oct 14</tspan><tspan x="0.3" y="7.4" fill="#ACB9BF" font-family="'HelveticaNeue'" font-size="5.2528px">Target</tspan></text>
</g>
<g>
	<text transform="matrix(1 0 0 1 135.5916 286.8254)" fill="#ACB9BF" font-family="'HelveticaNeue'" font-size="5.2528px">Today</text>
</g>
<g>
	<text transform="matrix(1 0 0 1 164.0427 286.8254)" fill="#737C80" font-family="'HelveticaNeue'" font-size="5.2528px">Initial Concepts</text>
</g>
<g>
	<text transform="matrix(1 0 0 1 338.3601 286.8254)" fill="#737C80" font-family="'HelveticaNeue'" font-size="5.2528px">Final Draft</text>
</g>
<g>
	<text transform="matrix(1 0 0 1 45.7117 82.0291)"><tspan x="0" y="0" fill="#46BA82" font-family="'HelveticaNeue-Bold'" font-size="7.3539px">Overview    </tspan><tspan x="40.7" y="0" fill="#737C80" font-family="'HelveticaNeue-Bold'" font-size="7.3539px">Messages    Deliverables    Inspiration</tspan></text>
</g>
<g>
	<text transform="matrix(1 0 0 1 46.7117 511.0291)"><tspan x="0" y="0" fill="#737C81" font-family="'HelveticaNeue-Bold'" font-size="7.3539px">Overview    </tspan><tspan x="40.7" y="0" fill="#737C80" font-family="'HelveticaNeue-Bold'" font-size="7.3539px">Messages    Deliverables    </tspan><tspan x="135.9" y="0" fill="#46BA82" font-family="'HelveticaNeue-Bold'" font-size="7.3539px">Inspiration</tspan></text>
</g>
<g>
	<g>
		<g>
			<g>
				<path fill="#FFFFFF" d="M163.7,728.6c0,2.2-1.8,4-4,4h-109c-2.2,0-4-1.8-4-4v-73.9c0-2.2,1.8-4,4-4h109c2.2,0,4,1.8,4,4V728.6z"
					/>
			</g>
		</g>
	</g>
	<g>
		<g>
			<g>
				<path fill="#71C48F" d="M288.6,738c0,2.2-1.8,4-4,4h-109c-2.2,0-4-1.8-4-4v-46.6c0-2.2,1.8-4,4-4h109c2.2,0,4,1.8,4,4V738z"/>
			</g>
		</g>
	</g>
	<g>
		<g>
			<g>
				<path fill="#FFFFFF" d="M163.7,637.6c0,2.2-1.8,4-4,4h-109c-2.2,0-4-1.8-4-4v-92.1c0-2.2,1.8-4,4-4h109c2.2,0,4,1.8,4,4V637.6z"
					/>
			</g>
		</g>
	</g>
	<g>
		<g>
			<g>
				<path fill="#FFFFFF" d="M413.4,655.8c0,2.2-1.8,4-4,4h-109c-2.2,0-4-1.8-4-4V545.5c0-2.2,1.8-4,4-4h109c2.2,0,4,1.8,4,4V655.8z"
					/>
			</g>
		</g>
	</g>
	<g>
		<g>
			<g>
				<path fill="#FFFFFF" d="M288.6,614.8c0,2.2-1.8,4-4,4h-109c-2.2,0-4-1.8-4-4v-69.3c0-2.2,1.8-4,4-4h109c2.2,0,4,1.8,4,4V614.8z"
					/>
			</g>
		</g>
	</g>
	<g>
		<rect x="171.5" y="627.9" fill="none" width="117" height="50"/>
		<text transform="matrix(0.8575 0 0 1 171.5425 632.4802)"><tspan x="0" y="0" fill="#737C80" font-family="'HelveticaNeue'" font-size="6.3689px">Tote bag artisan bicycle rights raw denim. </tspan><tspan x="0" y="10.9" fill="#737C80" font-family="'HelveticaNeue'" font-size="6.3689px">Polaroid single-origin coffee selfies, Bushwick </tspan><tspan x="0" y="21.8" fill="#737C80" font-family="'HelveticaNeue'" font-size="6.3689px">umami freegan sriracha kale chips. Twee </tspan><tspan x="0" y="32.8" fill="#737C80" font-family="'HelveticaNeue'" font-size="6.3689px">post-ironic mixtape, freegan artisan literally </tspan><tspan x="0" y="43.7" fill="#737C80" font-family="'HelveticaNeue'" font-size="6.3689px">chillwave tilde letterpress blog lomo locavore.</tspan></text>
	</g>
	<g>
		<rect x="49.3" y="642.1" fill="none" width="117" height="50"/>
		<text transform="matrix(0.8575 0 0 1 49.3115 646.6929)"><tspan x="0" y="0" fill="#737C80" font-family="'HelveticaNeue'" font-size="6.3689px">Tote bag artisan bicycle rights raw denim. </tspan><tspan x="0" y="10.9" fill="#737C80" font-family="'HelveticaNeue'" font-size="6.3689px">Polaroid single-origin coffee selfies, Bushwick </tspan><tspan x="0" y="21.8" fill="#737C80" font-family="'HelveticaNeue'" font-size="6.3689px">umami freegan sriracha kale chips. Twee </tspan><tspan x="0" y="32.8" fill="#737C80" font-family="'HelveticaNeue'" font-size="6.3689px">post-ironic mixtape, freegan artisan literally </tspan><tspan x="0" y="43.7" fill="#737C80" font-family="'HelveticaNeue'" font-size="6.3689px">chillwave tilde letterpress blog lomo locavore.</tspan></text>
	</g>
	<g>
		<rect x="296.4" y="670.8" fill="none" width="117" height="50"/>
		<text transform="matrix(0.8575 0 0 1 296.3726 675.3376)"><tspan x="0" y="0" fill="#737C80" font-family="'HelveticaNeue'" font-size="6.3689px">Tote bag artisan bicycle rights raw denim. </tspan><tspan x="0" y="10.9" fill="#737C80" font-family="'HelveticaNeue'" font-size="6.3689px">Polaroid single-origin coffee selfies, Bushwick </tspan><tspan x="0" y="21.8" fill="#737C80" font-family="'HelveticaNeue'" font-size="6.3689px">umami freegan narwhal sriracha kale chips. </tspan><tspan x="0" y="32.8" fill="#737C80" font-family="'HelveticaNeue'" font-size="6.3689px">Twee post-ironic freegan artisan literally </tspan><tspan x="0" y="43.7" fill="#737C80" font-family="'HelveticaNeue'" font-size="6.3689px">chillwave tilde letterpress blog lomo locavore.</tspan></text>
	</g>
	<g>
		<rect x="297.2" y="563.5" fill="none" width="117" height="50"/>
		<text transform="matrix(0.8575 0 0 1 297.1627 568.0662)"><tspan x="0" y="0" fill="#737C80" font-family="'HelveticaNeue'" font-size="6.3689px">Tote bag artisan bicycle rights raw denim. </tspan><tspan x="0" y="10.9" fill="#737C80" font-family="'HelveticaNeue'" font-size="6.3689px">Polaroid single-origin coffee selfies, Bushwick </tspan><tspan x="0" y="21.8" fill="#737C80" font-family="'HelveticaNeue'" font-size="6.3689px">umami freegan narwhal sriracha kale chips. </tspan><tspan x="0" y="32.8" fill="#737C80" font-family="'HelveticaNeue'" font-size="6.3689px">Twee post-ironic freegan artisan literally </tspan><tspan x="0" y="43.7" fill="#737C80" font-family="'HelveticaNeue'" font-size="6.3689px">chillwave tilde letterpress blog lomo locavore.</tspan></text>
	</g>
	<g>
		<path fill="#5AC6CB" d="M78.3,564.5l-9.4,33.9H83l4.7-21.2l4.7,21.2h14.1L97,564.5H78.3z"/>
		<path fill="#8F5AA5" d="M132.2,598.4v-25.4h-9.4v17l-4.7-17l-2.3-8.5H97l9.4,33.9h8.2l-4.6-16.7c0-0.1,0-0.2,0-0.3h2.4l4.7,17"/>
		<path fill="#5AC6CB" d="M58.1,606.6v-2.1h7.8v-6.1H50.2v14.2h15.7v-6H58.1z"/>
		<path fill="#8F5AA5" d="M50.2,598.4h18.7v-8.5h2.3l7-25.4H50.2V598.4z M59.6,572.9h7l-2.3,8.5h-4.7V572.9z M160,578.3
			c0.1,0,0.2,0,0.3,0v-5.3h-18.7v18l9.1-2.1c0.1,0,0.2,0,0.3,0v2.1l-9.1,2.1c-0.1,0-0.2,0-0.3,0v5.3h18.7v-18l-9.1,2.1
			c-0.1,0-0.2,0-0.3,0v-2.2C150.9,580.3,160,578.3,160,578.3z"/>
		<path fill="#5AC6CB" d="M144.5,612.6h10.1l-3.1-2.8l1.7-1.5l4.8,4.3h2.3v-14.2h-15.7V612.6z M151.2,601.9h2.3v1.8h-2.3V601.9z"/>
		<path fill="#8F5AA5" d="M136.7,606.6v-2.1h7.9V603h-7.9v-2.1h7.9v-2.5h-15.7v14.2h15.7v-6H136.7z"/>
		<path fill="#5AC6CB" d="M113.1,612.6h15.7v-14.2h-15.7V612.6z M119.8,604.4h9v2.1h-6.7v2.5h-2.3V604.4z"/>
		<path fill="#8F5AA5" d="M108.4,603.7H106v-5.3h-8.7v14.2h15.7v-14.2h-4.7L108.4,603.7L108.4,603.7z M104.4,612.6h-2.3v-5.3h2.3
			V612.6z"/>
		<path fill="#5AC6CB" d="M81.6,612.6h15.7v-14.2H81.6L81.6,612.6L81.6,612.6z M88.3,601.9h2.3v1.8h-2.3V601.9z M88.3,607.3h2.3v5.3
			h-2.3V607.3z"/>
		<path fill="#8F5AA5" d="M74.9,603.7h-2.3v-5.3h-6.7v14.2h15.7v-14.2h-6.7L74.9,603.7L74.9,603.7z M74.9,612.6h-2.3v-5.3h2.3V612.6
			z"/>
		<path fill="#5AC6CB" d="M115.8,564.5l2.3,8.5h14.1v25.4h9.4v-25.4h18.7v-8.5H115.8z"/>
	</g>
	<g transform="translate(121.07096,-341.01508)">
		<rect x="-66.1" y="1061.6" fill="#160D0D" stroke="#010101" stroke-width="2.694" width="104.8" height="14"/>
		<g transform="matrix(3.5422562,0,0,3.5422562,-1701.0459,-1377.4707)">
			<path fill="#5F3B39" stroke="#33B450" stroke-width="1.0996" d="M463.3,691.9v-2.3h-0.9v-0.5h2.4v0.5h-0.9v2.3H463.3z"/>
			<path fill="#5F3B39" stroke="#33B450" stroke-width="1.0996" d="M465.8,691.9l-0.7-2.7h0.6l0.5,1.9l0.6-1.9h0.7l0.5,1.9l0.5-1.9
				h0.6l-0.7,2.7h-0.6l-0.6-2l-0.6,2H465.8z"/>
			<path fill="#5F3B39" stroke="#33B450" stroke-width="1.0996" d="M469.5,691.9v-2.7h0.6v2.7H469.5z"/>
			<path fill="#5F3B39" stroke="#33B450" stroke-width="1.0996" d="M470.8,691.9v-2.7h0.6l1.2,1.8v-1.8h0.6v2.7h-0.6l-1.2-1.8v1.8
				H470.8z"/>
			<path fill="#5F3B39" stroke="#33B450" stroke-width="1.0996" d="M475.3,691.9v-2.7h1c0.4,0,0.6,0,0.7,0c0.2,0,0.3,0.1,0.4,0.3
				c0.1,0.1,0.2,0.3,0.2,0.5c0,0.2,0,0.3-0.1,0.4s-0.2,0.2-0.3,0.3c-0.1,0.1-0.2,0.1-0.3,0.1c-0.1,0-0.4,0-0.6,0h-0.4v1L475.3,691.9
				z M475.9,689.7v0.8h0.3c0.2,0,0.4,0,0.5,0s0.1-0.1,0.2-0.1c0-0.1,0.1-0.1,0.1-0.2c0-0.1,0-0.2-0.1-0.2c-0.1-0.1-0.1-0.1-0.2-0.1
				c-0.1,0-0.2,0-0.4,0L475.9,689.7z"/>
			<path fill="#5F3B39" stroke="#33B450" stroke-width="1.0996" d="M478.3,691.9v-2.7h2.2v0.5h-1.6v0.6h1.5v0.5h-1.5v0.7h1.7v0.5
				L478.3,691.9z"/>
			<path fill="#5F3B39" stroke="#33B450" stroke-width="1.0996" d="M484,691.9h-0.7l-0.3-0.6h-1.2l-0.2,0.6H481l1.2-2.7h0.6
				L484,691.9z M482.9,690.8l-0.4-1l-0.4,1H482.9z"/>
			<path fill="#5F3B39" stroke="#33B450" stroke-width="1.0996" d="M484.5,691.9v-2.7h0.6v1.2l1.2-1.2h0.8l-1.1,1.1l1.2,1.7h-0.8
				l-0.8-1.3l-0.5,0.5v0.8L484.5,691.9z"/>
			<path fill="#5F3B39" stroke="#33B450" stroke-width="1.0996" d="M487.5,691l0.6-0.1c0,0.2,0.1,0.3,0.2,0.4
				c0.1,0.1,0.3,0.1,0.4,0.1c0.2,0,0.3,0,0.4-0.1c0.1-0.1,0.1-0.2,0.1-0.3c0-0.1,0-0.1-0.1-0.2c0,0-0.1-0.1-0.2-0.1
				c-0.1,0-0.2-0.1-0.5-0.1c-0.3-0.1-0.6-0.2-0.7-0.3c-0.2-0.2-0.3-0.3-0.3-0.6c0-0.1,0-0.3,0.1-0.4c0.1-0.1,0.2-0.2,0.4-0.3
				s0.4-0.1,0.6-0.1c0.4,0,0.7,0.1,0.9,0.2c0.2,0.2,0.3,0.4,0.3,0.6l-0.6,0c0-0.1-0.1-0.2-0.2-0.3c-0.1-0.1-0.2-0.1-0.4-0.1
				c-0.2,0-0.3,0-0.4,0.1c-0.1,0-0.1,0.1-0.1,0.2c0,0.1,0,0.1,0.1,0.2c0.1,0.1,0.3,0.1,0.6,0.2s0.5,0.1,0.7,0.2
				c0.1,0.1,0.3,0.2,0.3,0.3c0.1,0.1,0.1,0.3,0.1,0.4c0,0.2,0,0.3-0.1,0.4c-0.1,0.1-0.2,0.2-0.4,0.3s-0.4,0.1-0.7,0.1
				c-0.4,0-0.7-0.1-0.9-0.2S487.5,691.3,487.5,691L487.5,691z"/>
		</g>
	</g>
	<g>
		<path id="path2998" fill="#557EBF" d="M205.4,577.7h-10.7v2.9h7.6c-0.4,4.1-4.1,5.8-7.6,5.8c-4.5,0-8.4-3.2-8.4-7.7
			c0-4.4,3.7-7.8,8.4-7.8c3.6,0,5.7,2.1,5.7,2.1l2.2-2.1c0,0-2.9-2.9-8.1-2.9c-6.7,0-11.8,5.1-11.8,10.6c0,5.4,4.8,10.7,12,10.7
			c6.3,0,10.9-3.9,10.9-9.7C205.6,578.4,205.4,577.7,205.4,577.7L205.4,577.7z"/>
		<path id="path3000" fill="#EA4535" d="M214.2,575.6c-4.4,0-7.6,3.1-7.6,6.8c0,3.7,3.1,6.9,7.6,6.9c4.1,0,7.5-2.9,7.5-6.8
			C221.8,577.9,217.9,575.6,214.2,575.6L214.2,575.6z M214.3,578.3c2.2,0,4.2,1.6,4.2,4.2c0,2.5-2,4.2-4.2,4.2
			c-2.4,0-4.3-1.7-4.3-4.2C210,580.1,211.8,578.3,214.3,578.3L214.3,578.3z"/>
		<path id="path3005" fill="#F9BC15" d="M230.7,575.6c-4.4,0-7.6,3.1-7.6,6.8c0,3.7,3.1,6.9,7.6,6.9c4.1,0,7.5-2.9,7.5-6.8
			C238.2,577.9,234.3,575.6,230.7,575.6L230.7,575.6z M230.7,578.3c2.2,0,4.2,1.6,4.2,4.2c0,2.5-2,4.2-4.2,4.2
			c-2.4,0-4.3-1.7-4.3-4.2C226.4,580.1,228.3,578.3,230.7,578.3L230.7,578.3z"/>
		<path id="path3007" fill="#557EBF" d="M246.8,575.6c-4,0-7.2,3.2-7.2,6.8c0,4.1,3.7,6.9,7.2,6.9c2.1,0,3.3-0.8,4.1-1.7v1.3
			c0,2.4-1.6,3.8-4,3.8c-2.3,0-3.5-1.6-3.9-2.4l-2.9,1.1c1,2,3.1,4,6.8,4c4,0,7.1-2.3,7.1-7.1V576h-3.2v1.2
			C249.9,576.2,248.6,575.6,246.8,575.6L246.8,575.6z M247.1,578.3c2,0,4,1.5,4,4.2c0,2.7-2,4.1-4.1,4.1c-2.2,0-4.2-1.6-4.2-4.1
			C242.9,579.9,245,578.3,247.1,578.3L247.1,578.3z"/>
		<path id="path3011" fill="#EA4535" d="M268.1,575.6c-3.8,0-7,2.8-7,6.8c0,4.3,3.6,6.9,7.4,6.9c3.2,0,5.1-1.6,6.3-3l-2.6-1.6
			c-0.7,1-1.8,1.9-3.7,1.9c-2.1,0-3.1-1.1-3.7-2.1l10.1-3.8l-0.5-1.1C273.4,577.4,271.1,575.6,268.1,575.6L268.1,575.6z
			 M268.2,578.2c1.4,0,2.4,0.7,2.8,1.5l-6.7,2.6C264,580.3,266,578.2,268.2,578.2L268.2,578.2z"/>
		<path id="path3015" fill="#36A852" d="M256.2,588.9h3.3v-20.2h-3.3V588.9z"/>
	</g>
	<g>
		<rect x="266.3" y="701.5" fill="#FFFFFF" width="3" height="30.3"/>
		<rect x="275.4" y="701.5" fill="#FFFFFF" width="3" height="30.3"/>
		<polygon fill="#FFFFFF" points="239.1,701.5 239.1,731.8 242.1,731.8 242.1,704.2 248.2,704.2 248.2,731.8 251.2,731.8 
			251.2,704.2 257.2,704.2 257.2,709.7 260.3,709.7 260.3,701.5 		"/>
		<rect x="257.2" y="715.2" fill="#FFFFFF" width="3" height="2.8"/>
		<rect x="257.2" y="723.5" fill="#FFFFFF" width="3" height="8.3"/>
		<polygon fill="#FFFFFF" points="184.6,701.5 184.6,731.8 187.6,731.8 187.6,704.2 193.7,704.2 193.7,731.8 196.7,731.8 
			196.7,704.2 202.8,704.2 202.8,709.7 205.8,709.7 205.8,701.5 		"/>
		<rect x="202.8" y="715.2" fill="#FFFFFF" width="3" height="2.8"/>
		<rect x="202.8" y="723.5" fill="#FFFFFF" width="3" height="8.3"/>
		<rect x="230" y="701.5" fill="#FFFFFF" width="3" height="2.8"/>
		<rect x="230" y="709.7" fill="#FFFFFF" width="3" height="22"/>
		<polygon fill="#FFFFFF" points="211.9,701.5 211.9,731.8 214.9,731.8 214.9,704.2 220.9,704.2 220.9,731.8 224,731.8 224,701.5 		
			"/>
	</g>
</g>
<g id="Layer_1_1_">
	<g>
		<path fill="#58BD7C" d="M312.3,624.5c2.8,0,5.9,1.3,8.2,3.5c0.3,0.3,0.3,0.7,0.1,1l-2.7,3.1c-0.3,0.3-0.6,0.3-0.9,0
			c-1.3-1.3-2.8-1.8-4.4-1.8c-3.7,0-6.6,3.4-6.6,7.5c0,4.1,3,7.4,6.7,7.4c1,0,2-0.1,3-0.6v-2.2h-2.1c-0.4,0-0.6-0.3-0.6-0.7v-3.7
			c0-0.4,0.3-0.7,0.6-0.7h6.8c0.3,0,0.6,0.3,0.6,0.7l0,10c0,0.3-0.1,0.5-0.3,0.6c0,0-3.5,2.4-8.3,2.4c-6.7,0-12.1-5.9-12.1-13.4
			C300.2,630.5,305.6,624.5,312.3,624.5z"/>
		<path fill="#58BD7C" d="M324.9,634.5c0-0.5,0.3-0.8,0.7-0.8h1.6c0.4,0,0.6,0.2,0.7,0.5l0.7,1.9c0.7-1.4,1.8-2.8,3.9-2.8
			c1.4,0,2.5,0.4,3,0.9c0.3,0.2,0.3,0.6,0.1,0.9l-1.5,3.4c-0.2,0.3-0.4,0.6-0.9,0.4c-0.3-0.1-0.8-0.3-1.2-0.3c-1.2,0-2,0.9-2,2.4v9
			c0,0.5-0.3,0.8-0.8,0.8h-3.5c-0.4,0-0.7-0.4-0.7-0.8L324.9,634.5L324.9,634.5z"/>
		<path fill="#58BD7C" d="M342.2,639.9c1.7,0,3.1,0.7,3.1,0.7c0-1.7-0.3-2.7-2.2-2.7c-1.1,0-2.9,0.3-3.9,0.6
			c-0.6,0.2-0.9-0.3-0.9-0.9l-0.4-2.7c-0.1-0.7,0.3-1.1,0.6-1.2c0.4-0.1,3.1-0.6,5.2-0.6c4.8,0,6.5,2.2,6.5,7.3v9.5
			c0,0.4-0.4,0.8-0.7,0.8h-1.6c-0.2,0-0.5-0.1-0.7-0.6l-0.5-1.2c-0.9,0.9-2.3,2.1-4.7,2.1c-3.1,0-5.4-2.2-5.4-5.7
			C336.4,642.4,338.6,639.9,342.2,639.9z M343.2,647.2c0.9,0,1.7-0.9,1.7-1.9c0-1-0.8-1.9-1.7-1.9c-0.9,0-1.7,0.9-1.7,1.9
			C341.4,646.3,342.2,647.2,343.2,647.2z"/>
		<path fill="#58BD7C" d="M353.7,634.5c0-0.5,0.3-0.8,0.7-0.8h1.5c0.2,0,0.5,0.2,0.7,0.5l0.6,1.7c0.8-1,2-2.6,4.8-2.6
			c4.8,0,6.5,3.8,6.5,8.6v8.3c0,0.4-0.3,0.8-0.7,0.8h-3.7c-0.4,0-0.7-0.4-0.7-0.8v-8.3c0-1.6-0.5-3.2-2.3-3.2
			c-1.5,0-2.4,1.2-2.4,2.9v8.5c0,0.4-0.2,0.8-0.7,0.8h-3.7c-0.4,0-0.7-0.4-0.7-0.8V634.5z"/>
		<path fill="#58BD7C" d="M378.9,633.3c1.5,0,3.1,0.5,3.6,1v-8.7c0-0.4,0.3-0.8,0.7-0.8h3.6c0.4,0,0.7,0.4,0.7,0.8v24.5
			c0,0.4-0.3,0.8-0.7,0.8h-1.5c-0.4,0-0.7-0.4-0.8-0.9l-0.4-1.4c0,0-1.8,2.7-5.2,2.7c-4.4,0-7.7-4.1-7.7-9
			C371.2,636.2,374.7,633.3,378.9,633.3z M379.6,646c1.9,0,3.3-1.6,3.3-3.7c0-2.1-1.4-3.7-3.3-3.7c-1.8,0-3.3,1.6-3.3,3.7
			C376.3,644.4,377.8,646,379.6,646z"/>
		<path fill="#58BD7C" d="M389.7,634.8c-0.2-0.6,0.1-1.1,0.6-1.1h4c0.3,0,0.5,0.2,0.6,0.5l2.1,9.1h0.1l3-9.1
			c0.1-0.3,0.4-0.5,0.7-0.5h3.8c0.6,0,0.9,0.5,0.7,1.1l-9.2,24.5c-0.1,0.3-0.4,0.5-0.6,0.5h-3.8c-0.6,0-0.9-0.6-0.6-1.2l3.2-9
			L389.7,634.8z"/>
	</g>
</g>
</svg>
