<?xml version="1.0" encoding="utf-8"?>
<!-- Generator: Adobe Illustrator 19.1.0, SVG Export Plug-In . SVG Version: 6.00 Build 0)  -->
<svg version="1.1" id="Layer_1" xmlns="http://www.w3.org/2000/svg" xmlns:xlink="http://www.w3.org/1999/xlink" x="0px" y="0px"
	 viewBox="0 0 460 760" enable-background="new 0 0 460 760" xml:space="preserve">
<g>
	<g>
		<g>
			<rect x="2" y="42" fill="#FFFFFF" width="456" height="286"/>
			<g>
				<path fill="#E5E5E1" d="M456,44v282H4V44H456 M460,40H0v290h460V40L460,40z"/>
			</g>
		</g>
		<path fill="#E5E5E1" d="M456,0H4C1.8,0,0,1.8,0,4v36h460V4C460,1.8,458.2,0,456,0z"/>
	</g>
	<g>
		<g>
			<rect x="2" y="472" fill="#FFFFFF" width="456" height="286"/>
			<g>
				<path fill="#E5E5E1" d="M456,474v282H4V474H456 M460,470H0v290h460V470L460,470z"/>
			</g>
		</g>
		<path fill="#E5E5E1" d="M456,430H4c-2.2,0-4,1.8-4,4v36h460v-36C460,431.8,458.2,430,456,430z"/>
	</g>
	<g>
		<g>
			
				<line fill="none" stroke="#E5E5E1" stroke-width="4" stroke-linecap="round" stroke-linejoin="round" x1="230" y1="350" x2="230" y2="405.7"/>
			<g>
				<polygon fill="#E5E5E1" points="213.6,392.4 216.6,389.7 230,404.1 243.4,389.7 246.4,392.4 230,410 				"/>
			</g>
		</g>
	</g>
</g>
</svg>
