<?xml version="1.0" encoding="utf-8"?>
<!-- Generator: Adobe Illustrator 19.1.0, SVG Export Plug-In . SVG Version: 6.00 Build 0)  -->
<svg version="1.1" id="Layer_1" xmlns="http://www.w3.org/2000/svg" xmlns:xlink="http://www.w3.org/1999/xlink" x="0px" y="0px"
	 viewBox="0 0 100 30" enable-background="new 0 0 100 30" xml:space="preserve">
<g id="Layer_1_1_">
	<g>
		<path fill="#FFFFFF" d="M11.4,0c2.7,0,5.6,1.1,7.7,3c0.3,0.2,0.3,0.6,0.1,0.9l-2.5,2.7c-0.3,0.2-0.6,0.2-0.9,0
			C14.6,5.4,13.2,5,11.7,5c-3.5,0-6.2,2.9-6.2,6.4c0,3.5,2.8,6.3,6.3,6.3c0.9,0,1.9-0.1,2.8-0.5v-1.8h-2c-0.3,0-0.6-0.3-0.6-0.6
			v-3.1c0-0.3,0.3-0.6,0.6-0.6h6.4c0.3,0,0.6,0.3,0.6,0.6l0,8.5c0,0.3-0.1,0.4-0.3,0.5c0,0-3.3,2.1-7.9,2.1C5.1,22.7,0,17.7,0,11.4
			C0,5.1,5.1,0,11.4,0z"/>
		<path fill="#FFFFFF" d="M23.2,8.5c0-0.4,0.3-0.7,0.7-0.7h1.5c0.4,0,0.6,0.2,0.7,0.4l0.7,1.6c0.6-1.2,1.7-2.4,3.6-2.4
			c1.3,0,2.3,0.3,2.9,0.8c0.3,0.2,0.3,0.5,0.1,0.8l-1.5,2.9c-0.2,0.3-0.4,0.5-0.8,0.3c-0.3-0.1-0.8-0.2-1.1-0.2
			c-1.1,0-1.9,0.8-1.9,2v7.7c0,0.4-0.3,0.7-0.8,0.7h-3.3c-0.4,0-0.7-0.3-0.7-0.7L23.2,8.5L23.2,8.5z"/>
		<path fill="#FFFFFF" d="M39.5,13.1c1.6,0,2.9,0.6,2.9,0.6c0-1.4-0.3-2.2-2-2.2c-1,0-2.7,0.2-3.7,0.5c-0.6,0.2-0.8-0.2-0.9-0.8
			L35.5,9c-0.1-0.6,0.3-0.9,0.6-1c0.3-0.1,2.9-0.5,4.9-0.5c4.5,0,6.1,1.8,6.1,6.2v8.1c0,0.4-0.3,0.7-0.7,0.7h-1.6
			c-0.2,0-0.5-0.1-0.7-0.5l-0.5-1c-0.9,0.8-2.1,1.8-4.4,1.8c-2.9,0-5.1-1.9-5.1-4.8C34.1,15.2,36.2,13.1,39.5,13.1z M40.5,19.3
			c0.9,0,1.6-0.7,1.6-1.6c0-0.9-0.8-1.6-1.6-1.6s-1.6,0.8-1.6,1.6C38.8,18.5,39.6,19.3,40.5,19.3z"/>
		<path fill="#FFFFFF" d="M50.4,8.5c0-0.4,0.3-0.7,0.7-0.7h1.4c0.2,0,0.5,0.2,0.7,0.4l0.5,1.5c0.8-0.9,1.9-2.2,4.6-2.2
			c4.6,0,6.1,3.2,6.1,7.3v7c0,0.4-0.3,0.7-0.7,0.7h-3.5c-0.4,0-0.7-0.3-0.7-0.7v-7.1c0-1.4-0.5-2.7-2.1-2.7c-1.5,0-2.2,1-2.2,2.5
			v7.3c0,0.3-0.2,0.7-0.7,0.7h-3.5c-0.4,0-0.7-0.3-0.7-0.7V8.5z"/>
		<path fill="#FFFFFF" d="M74.1,7.5c1.4,0,2.9,0.4,3.4,0.8V1c0-0.3,0.3-0.7,0.7-0.7h3.4c0.4,0,0.7,0.3,0.7,0.7v20.8
			c0,0.4-0.3,0.7-0.7,0.7h-1.4c-0.3,0-0.6-0.3-0.8-0.7L79,20.5c0,0-1.7,2.3-4.9,2.3c-4.1,0-7.2-3.5-7.2-7.7
			C66.9,10,70.2,7.5,74.1,7.5z M74.8,18.3c1.8,0,3.1-1.4,3.1-3.2c0-1.8-1.3-3.1-3.1-3.1c-1.7,0-3.1,1.3-3.1,3.1
			C71.7,16.9,73.1,18.3,74.8,18.3z"/>
		<path fill="#FFFFFF" d="M84.4,8.8c-0.2-0.5,0.1-1,0.6-1h3.8c0.3,0,0.5,0.2,0.6,0.4l2,7.8h0.1l2.8-7.8c0.1-0.3,0.3-0.4,0.6-0.4h3.6
			c0.6,0,0.9,0.4,0.6,1l-8.6,20.8c-0.1,0.2-0.3,0.4-0.6,0.4h-3.5c-0.5,0-0.8-0.5-0.6-1l3-7.7L84.4,8.8z"/>
	</g>
</g>
</svg>
